<svg id="svg2" xmlns="http://www.w3.org/2000/svg" viewBox="0 0 391 354.87"><defs><style>.cls-1{fill:#fff;}</style></defs><title>likeIcon</title><path id="rect2816" class="cls-1" d="M196.76,41.81l160.4,160.81L206.47,353.69a13.73,13.73,0,0,1-19.43,0L36.35,202.62Z" transform="translate(-2 -2.84)"/><path id="path2820" class="cls-1" d="M234.52,119.89c0,64.36-52.05,116.54-116.26,116.54S2,184.25,2,119.89,54.05,3.34,118.26,3.34,234.52,55.52,234.52,119.89Z" transform="translate(-2 -2.84)"/><path id="path2822" class="cls-1" d="M393,119.39c0,64.37-52.05,116.55-116.26,116.55S160.48,183.76,160.48,119.39,212.53,2.84,276.74,2.84,393,55,393,119.39Z" transform="translate(-2 -2.84)"/></svg>